<svg width="108" height="60" viewBox="0 0 108 60" fill="none" xmlns="http://www.w3.org/2000/svg">
<g opacity="0.8">
<path fill-rule="evenodd" clip-rule="evenodd" d="M59.5 14C61.433 14 63 15.567 63 17.5C63 19.433 61.433 21 59.5 21H91.5C93.433 21 95 22.567 95 24.5C95 26.433 93.433 28 91.5 28H102.5C104.433 28 106 29.567 106 31.5C106 33.433 104.433 35 102.5 35H93C91.067 35 89.5 36.567 89.5 38.5C89.5 40.433 91.067 42 93 42H96C97.933 42 99.5 43.567 99.5 45.5C99.5 47.433 97.933 49 96 49H70C69.7426 49 69.4916 48.9722 69.25 48.9195C69.0084 48.9722 68.7574 49 68.5 49H23C21.067 49 19.5 47.433 19.5 45.5C19.5 43.567 21.067 42 23 42H3.5C1.567 42 0 40.433 0 38.5C0 36.567 1.567 35 3.5 35H23.5C25.433 35 27 33.433 27 31.5C27 29.567 25.433 28 23.5 28H11C9.067 28 7.5 26.433 7.5 24.5C7.5 22.567 9.067 21 11 21H31C29.067 21 27.5 19.433 27.5 17.5C27.5 15.567 29.067 14 31 14H59.5ZM104.5 42C106.433 42 108 43.567 108 45.5C108 47.433 106.433 49 104.5 49C102.567 49 101 47.433 101 45.5C101 43.567 102.567 42 104.5 42Z" fill="#1878F3" fill-opacity="0.2"/>
<path fill-rule="evenodd" clip-rule="evenodd" d="M34.6401 51.5615L32.605 51.8475C31.5112 52.0012 30.4999 51.2391 30.3462 50.1453L24.7792 10.5345C24.6255 9.44073 25.3876 8.42939 26.4814 8.27567L65.597 2.77833C66.6908 2.6246 67.7022 3.3867 67.8559 4.48052C68.0932 6.16898 68.2527 7.30361 68.3343 7.8844" fill="white"/>
<path fill-rule="evenodd" clip-rule="evenodd" d="M35.9035 49.3563L34.0556 49.619C33.0623 49.7601 32.1453 49.0695 32.0073 48.0765L27.0097 12.1141C26.8717 11.121 27.565 10.2015 28.5582 10.0603L64.077 5.01196C65.0702 4.87079 65.9873 5.56139 66.1253 6.55447L66.5547 9.64483C66.578 9.81205 68.1122 20.9118 71.1575 42.944C71.3105 44.0503 70.5476 45.0726 69.4537 45.2272C69.4419 45.2289 69.4302 45.2304 69.4184 45.2319L35.9035 49.3563Z" fill="#1878F3" fill-opacity="0.1"/>
<path d="M34.6401 51.5615L32.605 51.8475C31.5112 52.0012 30.4999 51.2391 30.3462 50.1453L24.7792 10.5345C24.6255 9.44073 25.3876 8.42939 26.4814 8.27567L65.597 2.77833C66.6908 2.6246 67.7022 3.3867 67.8559 4.48052C68.0932 6.16898 68.2527 7.3036 68.3343 7.8844" stroke="#1878F3" stroke-opacity="0.9" stroke-width="2.5" stroke-linecap="round"/>
<path d="M68.75 10.1897L69 11.7499" stroke="#1878F3" stroke-opacity="0.9" stroke-width="2.5" stroke-linecap="round"/>
<path fill-rule="evenodd" clip-rule="evenodd" d="M82.2058 15.1493L42.9222 11.0204C42.5445 10.9807 42.1866 11.0979 41.9131 11.3193C41.6396 11.5408 41.4506 11.8666 41.411 12.2442L37.2298 52.0251C37.1901 52.4027 37.3073 52.7606 37.5287 53.0341C37.7502 53.3076 38.0759 53.4966 38.4536 53.5362L77.7372 57.6651C78.1148 57.7048 78.4728 57.5877 78.7462 57.3662C79.0197 57.1448 79.2087 56.819 79.2484 56.4414L83.4295 16.6605C83.4692 16.2829 83.3521 15.9249 83.1306 15.6515C82.9092 15.378 82.5834 15.189 82.2058 15.1493Z" fill="white" stroke="#1878F3" stroke-opacity="0.9" stroke-width="2.5"/>
<path fill-rule="evenodd" clip-rule="evenodd" d="M46.4957 15.2923L77.8231 18.5849C78.647 18.6715 79.2447 19.4096 79.1581 20.2335L76.3881 46.5884C76.3015 47.4122 75.5634 48.0099 74.7395 47.9233L43.4121 44.6307C42.5882 44.5441 41.9905 43.806 42.0771 42.9821L44.8471 16.6273C44.9337 15.8034 45.6718 15.2057 46.4957 15.2923Z" fill="white"/>
<path fill-rule="evenodd" clip-rule="evenodd" d="M46.3712 36.9388L51.27 33.6348C52.0868 33.0839 53.1831 33.2099 53.8537 33.9318L57.4405 37.7933C57.6195 37.986 57.9172 38.0071 58.1216 37.8415L65.7915 31.6267C66.6497 30.9313 67.9091 31.0633 68.6045 31.9215C68.6495 31.9769 68.6914 32.0348 68.7302 32.0947L73.7206 39.8134L74.4373 41.0093L74.0941 45.0717C74.0708 45.3469 73.8289 45.5511 73.5538 45.5278C73.5494 45.5275 73.545 45.527 73.5406 45.5266L45.0593 42.3622C44.7885 42.3321 44.5916 42.0907 44.6166 41.8194L44.9941 37.7201L46.3712 36.9388Z" fill="#1878F3" fill-opacity="0.1"/>
<path fill-rule="evenodd" clip-rule="evenodd" d="M77.7562 19.2066L46.4288 15.914C46.1885 15.8887 45.9607 15.9633 45.7867 16.1042C45.6127 16.2451 45.4924 16.4524 45.4671 16.6927L42.6971 43.0476C42.6719 43.2879 42.7464 43.5156 42.8873 43.6897C43.0283 43.8637 43.2356 43.984 43.4759 44.0092L74.8033 47.3019C75.0436 47.3271 75.2714 47.2526 75.4454 47.1117C75.6195 46.9707 75.7397 46.7634 75.765 46.5231L78.535 20.1683C78.5602 19.928 78.4857 19.7002 78.3448 19.5262C78.2039 19.3521 77.9965 19.2319 77.7562 19.2066Z" stroke="#1878F3" stroke-opacity="0.9" stroke-width="2.5"/>
<path d="M52.2021 27.9582C53.8499 28.1314 55.3261 26.936 55.4993 25.2882C55.6724 23.6404 54.4771 22.1643 52.8293 21.9911C51.1815 21.8179 49.7053 23.0133 49.5321 24.6611C49.3589 26.3088 50.5543 27.785 52.2021 27.9582Z" fill="#1878F3" fill-opacity="0.1" stroke="#1878F3" stroke-opacity="0.9" stroke-width="2.5"/>
<path d="M45.3642 37.7124C46.6763 36.8063 48.6445 35.4471 51.2687 33.6349C52.0856 33.084 53.1819 33.21 53.8524 33.9319L57.4393 37.7934C57.6183 37.9861 57.916 38.0072 58.1204 37.8416L65.7903 31.6267C66.6485 30.9314 67.9079 31.0633 68.6033 31.9215C68.6482 31.977 68.6902 32.0348 68.7289 32.0948C71.7184 36.8384 73.5624 39.7644 74.261 40.8728" stroke="#1878F3" stroke-opacity="0.9" stroke-width="2.5" stroke-linecap="round"/>
</g>
</svg>
