<svg width="136" height="136" viewBox="0 0 136 136" fill="none" xmlns="http://www.w3.org/2000/svg">
<rect x="0.5" y="0.5" width="135" height="135" rx="67.5" fill="white"/>
<g opacity="0.8">
<path fill-rule="evenodd" clip-rule="evenodd" d="M73.5 52C75.433 52 77 53.567 77 55.5C77 57.433 75.433 59 73.5 59H105.5C107.433 59 109 60.567 109 62.5C109 64.433 107.433 66 105.5 66H116.5C118.433 66 120 67.567 120 69.5C120 71.433 118.433 73 116.5 73H107C105.067 73 103.5 74.567 103.5 76.5C103.5 78.433 105.067 80 107 80H110C111.933 80 113.5 81.567 113.5 83.5C113.5 85.433 111.933 87 110 87H84C83.7426 87 83.4916 86.9722 83.25 86.9195C83.0084 86.9722 82.7574 87 82.5 87H37C35.067 87 33.5 85.433 33.5 83.5C33.5 81.567 35.067 80 37 80H17.5C15.567 80 14 78.433 14 76.5C14 74.567 15.567 73 17.5 73H37.5C39.433 73 41 71.433 41 69.5C41 67.567 39.433 66 37.5 66H25C23.067 66 21.5 64.433 21.5 62.5C21.5 60.567 23.067 59 25 59H45C43.067 59 41.5 57.433 41.5 55.5C41.5 53.567 43.067 52 45 52H73.5ZM118.5 80C120.433 80 122 81.567 122 83.5C122 85.433 120.433 87 118.5 87C116.567 87 115 85.433 115 83.5C115 81.567 116.567 80 118.5 80Z" fill="#1878F3" fill-opacity="0.2"/>
<path fill-rule="evenodd" clip-rule="evenodd" d="M48.6391 89.5615L46.6041 89.8475C45.5103 90.0012 44.4989 89.2391 44.3452 88.1453L38.7783 48.5345C38.6245 47.4407 39.3866 46.4294 40.4805 46.2757L79.596 40.7783C80.6899 40.6246 81.7012 41.3867 81.8549 42.4805C82.0922 44.169 82.2517 45.3036 82.3333 45.8844" fill="white"/>
<path fill-rule="evenodd" clip-rule="evenodd" d="M49.9025 87.3563L48.0546 87.619C47.0613 87.7601 46.1443 87.0695 46.0063 86.0765L41.0087 50.1141C40.8707 49.121 41.564 48.2015 42.5572 48.0603L78.076 43.012C79.0692 42.8708 79.9863 43.5614 80.1243 44.5545L80.5537 47.6448C80.577 47.8121 82.1113 58.9118 85.1566 80.944C85.3095 82.0503 84.5466 83.0726 83.4527 83.2272C83.441 83.2289 83.4292 83.2304 83.4174 83.2319L49.9025 87.3563Z" fill="#1878F3" fill-opacity="0.1"/>
<path d="M48.6391 89.5615L46.6041 89.8475C45.5103 90.0012 44.4989 89.2391 44.3452 88.1453L38.7783 48.5345C38.6245 47.4407 39.3866 46.4294 40.4805 46.2757L79.596 40.7783C80.6899 40.6246 81.7012 41.3867 81.8549 42.4805C82.0922 44.169 82.2517 45.3036 82.3333 45.8844" stroke="#1878F3" stroke-opacity="0.9" stroke-width="2.5" stroke-linecap="round"/>
<path d="M82.75 48.1897L83 49.7499" stroke="#1878F3" stroke-opacity="0.9" stroke-width="2.5" stroke-linecap="round"/>
<path fill-rule="evenodd" clip-rule="evenodd" d="M96.2058 53.1493L56.9222 49.0204C56.5445 48.9807 56.1866 49.0979 55.9131 49.3193C55.6396 49.5408 55.4506 49.8666 55.411 50.2442L51.2298 90.0251C51.1901 90.4027 51.3073 90.7606 51.5287 91.0341C51.7502 91.3076 52.0759 91.4966 52.4536 91.5362L91.7372 95.6651C92.1148 95.7048 92.4728 95.5877 92.7462 95.3662C93.0197 95.1448 93.2087 94.819 93.2484 94.4414L97.4295 54.6605C97.4692 54.2829 97.3521 53.9249 97.1306 53.6515C96.9092 53.378 96.5834 53.189 96.2058 53.1493Z" fill="white" stroke="#1878F3" stroke-opacity="0.9" stroke-width="2.5"/>
<path fill-rule="evenodd" clip-rule="evenodd" d="M60.4947 53.2923L91.8222 56.5849C92.646 56.6715 93.2437 57.4096 93.1571 58.2335L90.3871 84.5884C90.3005 85.4122 89.5625 86.0099 88.7386 85.9233L57.4111 82.6307C56.5872 82.5441 55.9895 81.806 56.0761 80.9821L58.8461 54.6273C58.9327 53.8034 59.6708 53.2057 60.4947 53.2923Z" fill="white"/>
<path fill-rule="evenodd" clip-rule="evenodd" d="M60.3703 74.9388L65.269 71.6348C66.0858 71.0839 67.1822 71.2099 67.8527 71.9318L71.4395 75.7933C71.6185 75.986 71.9162 76.0071 72.1206 75.8415L79.7905 69.6267C80.6487 68.9313 81.9082 69.0633 82.6036 69.9215C82.6485 69.9769 82.6904 70.0348 82.7292 70.0947L87.7196 77.8134L88.4363 79.0093L88.0931 83.0717C88.0698 83.3469 87.8279 83.5511 87.5528 83.5278C87.5484 83.5275 87.544 83.527 87.5397 83.5266L59.0583 80.3622C58.7875 80.3321 58.5906 80.0907 58.6156 79.8194L58.9931 75.7201L60.3703 74.9388Z" fill="#1878F3" fill-opacity="0.1"/>
<path fill-rule="evenodd" clip-rule="evenodd" d="M91.7572 57.2066L60.4298 53.914C60.1895 53.8887 59.9617 53.9633 59.7877 54.1042C59.6136 54.2451 59.4934 54.4524 59.4681 54.6927L56.6981 81.0476C56.6728 81.2879 56.7474 81.5156 56.8883 81.6897C57.0292 81.8637 57.2365 81.984 57.4768 82.0092L88.8043 85.3019C89.0446 85.3271 89.2724 85.2526 89.4464 85.1117C89.6204 84.9707 89.7407 84.7634 89.766 84.5231L92.536 58.1683C92.5612 57.928 92.4867 57.7002 92.3458 57.5262C92.2048 57.3521 91.9975 57.2319 91.7572 57.2066Z" stroke="#1878F3" stroke-opacity="0.9" stroke-width="2.5"/>
<path d="M66.2021 65.9582C67.8499 66.1314 69.3261 64.936 69.4993 63.2882C69.6724 61.6404 68.4771 60.1643 66.8293 59.9911C65.1815 59.8179 63.7053 61.0133 63.5321 62.6611C63.3589 64.3088 64.5543 65.785 66.2021 65.9582Z" fill="#1878F3" fill-opacity="0.1" stroke="#1878F3" stroke-opacity="0.9" stroke-width="2.5"/>
<path d="M59.3642 75.7124C60.6763 74.8063 62.6445 73.4471 65.2687 71.6349C66.0856 71.084 67.1819 71.21 67.8524 71.9319L71.4393 75.7934C71.6183 75.9861 71.916 76.0072 72.1204 75.8416L79.7903 69.6267C80.6485 68.9314 81.9079 69.0633 82.6033 69.9215C82.6482 69.977 82.6902 70.0348 82.7289 70.0948C85.7184 74.8384 87.5624 77.7644 88.261 78.8728" stroke="#1878F3" stroke-opacity="0.9" stroke-width="2.5" stroke-linecap="round"/>
</g>
<rect x="0.5" y="0.5" width="135" height="135" rx="67.5" stroke="#EAEAEF" stroke-linecap="round" stroke-dasharray="5 5"/>
</svg>
